<svg xmlns="http://www.w3.org/2000/svg" width="1120" height="520" viewBox="0 0 1120 520">
<rect width="100%" height="100%" fill="#ffffff"/>
<text x="48" y="42" font-family="DejaVu Sans,Arial,sans-serif" font-size="22" font-weight="700" fill="#172033">Vector-memory channel and the injection-site ablation</text>
<text x="48" y="66" font-family="DejaVu Sans,Arial,sans-serif" font-size="12" fill="#5b6475">Frozen source encoder and target LM; the source sentence is evaluator-only at inference</text>
<rect x="55" y="125" width="205" height="108" rx="12" fill="#f7f9fc" stroke="#dfe4ec" stroke-width="2"/>
<text x="157.5" y="168" text-anchor="middle" font-family="DejaVu Sans,Arial,sans-serif" font-size="16" font-weight="700" fill="#172033">Memory text</text>
<text x="157.5" y="197" text-anchor="middle" font-family="DejaVu Sans,Arial,sans-serif" font-size="12" fill="#5b6475">evaluator side</text>
<rect x="300" y="125" width="205" height="108" rx="12" fill="#f7f9fc" stroke="#dfe4ec" stroke-width="2"/>
<text x="402.5" y="168" text-anchor="middle" font-family="DejaVu Sans,Arial,sans-serif" font-size="16" font-weight="700" fill="#172033">Qwen3-Embedding-8B</text>
<text x="402.5" y="197" text-anchor="middle" font-family="DejaVu Sans,Arial,sans-serif" font-size="12" fill="#5b6475">frozen retrieval encoder</text>
<rect x="545" y="125" width="205" height="108" rx="12" fill="#f7f9fc" stroke="#dfe4ec" stroke-width="2"/>
<text x="647.5" y="168" text-anchor="middle" font-family="DejaVu Sans,Arial,sans-serif" font-size="16" font-weight="700" fill="#172033">Ridge map  W x + b</text>
<text x="647.5" y="197" text-anchor="middle" font-family="DejaVu Sans,Arial,sans-serif" font-size="12" fill="#5b6475">single fitted linear bridge</text>
<rect x="790" y="125" width="270" height="108" rx="12" fill="#f7f9fc" stroke="#dfe4ec" stroke-width="2"/>
<text x="925.0" y="168" text-anchor="middle" font-family="DejaVu Sans,Arial,sans-serif" font-size="16" font-weight="700" fill="#172033">Pseudo-token slots</text>
<text x="925.0" y="197" text-anchor="middle" font-family="DejaVu Sans,Arial,sans-serif" font-size="12" fill="#5b6475">replace marked input embeddings</text>
<line x1="260" y1="179" x2="290" y2="179" stroke="#172033" stroke-width="2.5"/>
<path d="M 290 173 L 300 179 L 290 185 Z" fill="#172033"/>
<line x1="505" y1="179" x2="535" y2="179" stroke="#172033" stroke-width="2.5"/>
<path d="M 535 173 L 545 179 L 535 185 Z" fill="#172033"/>
<line x1="750" y1="179" x2="780" y2="179" stroke="#172033" stroke-width="2.5"/>
<path d="M 780 173 L 790 179 L 780 185 Z" fill="#172033"/>
<rect x="345" y="305" width="355" height="118" rx="12" fill="#eef8f5" stroke="#16856b" stroke-width="2"/>
<text x="365" y="336" font-family="DejaVu Sans,Arial,sans-serif" font-size="15" font-weight="700" fill="#16856b">Embedding input (before block 0)</text>
<text x="365" y="363" font-family="DejaVu Sans,Arial,sans-serif" font-size="13" fill="#172033">All transformer blocks remain downstream.</text>
<text x="365" y="388" font-family="DejaVu Sans,Arial,sans-serif" font-size="13" fill="#172033">Oracle vectors: content-sensitive reconstruction and use.</text>
<rect x="730" y="305" width="335" height="118" rx="12" fill="#fff3f4" stroke="#cf3e4f" stroke-width="2"/>
<text x="750" y="336" font-family="DejaVu Sans,Arial,sans-serif" font-size="15" font-weight="700" fill="#cf3e4f">Final post-norm</text>
<text x="750" y="363" font-family="DejaVu Sans,Arial,sans-serif" font-size="13" fill="#172033">Only the output projection remains.</text>
<text x="750" y="388" font-family="DejaVu Sans,Arial,sans-serif" font-size="13" fill="#172033">~300 generations: no recall; control leaked disturbance.</text>
<line x1="925" y1="233" x2="925" y2="295" stroke="#172033" stroke-width="2"/>
<path d="M 919 295 L 925 305 L 931 295 Z" fill="#172033"/>
<line x1="820" y1="233" x2="620" y2="295" stroke="#16856b" stroke-width="2"/>
<path d="M 618 289 L 610 298 L 622 300 Z" fill="#16856b"/>
<text x="48" y="480" font-family="DejaVu Sans,Arial,sans-serif" font-size="11" fill="#5b6475">Sources: niodoo/src/bin/synapse_soft_slot.rs; research_logs/2026-08-24_synapse-recall-wrong-end-of-the-stack.md.</text>
</svg>
